<svg xmlns="http://www.w3.org/2000/svg" viewBox="0 0 1100 820" width="1100" height="820" font-family="'SF Mono', 'Fira Code', 'Cascadia Code', monospace">
  <defs>
    <!-- Background gradient -->
    <linearGradient id="bgGrad" x1="0%" y1="0%" x2="100%" y2="100%">
      <stop offset="0%" style="stop-color:#0d1117;stop-opacity:1" />
      <stop offset="100%" style="stop-color:#161b22;stop-opacity:1" />
    </linearGradient>
    <!-- Accent glow -->
    <filter id="glow" x="-20%" y="-20%" width="140%" height="140%">
      <feGaussianBlur stdDeviation="3" result="coloredBlur"/>
      <feMerge>
        <feMergeNode in="coloredBlur"/>
        <feMergeNode in="SourceGraphic"/>
      </feMerge>
    </filter>
    <!-- Soft glow for progress bar -->
    <filter id="barGlow" x="-10%" y="-50%" width="120%" height="200%">
      <feGaussianBlur stdDeviation="2" result="coloredBlur"/>
      <feMerge>
        <feMergeNode in="coloredBlur"/>
        <feMergeNode in="SourceGraphic"/>
      </feMerge>
    </filter>
    <!-- Panel gradient -->
    <linearGradient id="panelGrad" x1="0%" y1="0%" x2="0%" y2="100%">
      <stop offset="0%" style="stop-color:#1c2128;stop-opacity:1" />
      <stop offset="100%" style="stop-color:#161b22;stop-opacity:1" />
    </linearGradient>
    <!-- Progress bar gradient -->
    <linearGradient id="progressGrad" x1="0%" y1="0%" x2="100%" y2="0%">
      <stop offset="0%" style="stop-color:#7c3aed" />
      <stop offset="60%" style="stop-color:#a855f7" />
      <stop offset="100%" style="stop-color:#c084fc" />
    </linearGradient>
    <!-- Green gradient for done -->
    <linearGradient id="greenGrad" x1="0%" y1="0%" x2="100%" y2="0%">
      <stop offset="0%" style="stop-color:#059669" />
      <stop offset="100%" style="stop-color:#10b981" />
    </linearGradient>
    <!-- Clip paths -->
    <clipPath id="progressClip">
      <rect x="0" y="0" width="460" height="10" rx="5"/>
    </clipPath>
    <clipPath id="miniProgressClip">
      <rect x="0" y="0" width="280" height="6" rx="3"/>
    </clipPath>
  </defs>

  <!-- ═══════════════════════════════════════════════════ -->
  <!-- BACKGROUND                                          -->
  <!-- ═══════════════════════════════════════════════════ -->
  <rect width="1100" height="820" fill="url(#bgGrad)" rx="16"/>

  <!-- Subtle grid overlay -->
  <pattern id="grid" width="40" height="40" patternUnits="userSpaceOnUse">
    <path d="M 40 0 L 0 0 0 40" fill="none" stroke="#ffffff" stroke-opacity="0.02" stroke-width="1"/>
  </pattern>
  <rect width="1100" height="820" fill="url(#grid)" rx="16"/>

  <!-- Border -->
  <rect width="1100" height="820" fill="none" stroke="#30363d" stroke-width="1.5" rx="16"/>

  <!-- ═══════════════════════════════════════════════════ -->
  <!-- HEADER                                              -->
  <!-- ═══════════════════════════════════════════════════ -->
  <rect x="0" y="0" width="1100" height="64" fill="#161b22" rx="16"/>
  <rect x="0" y="48" width="1100" height="16" fill="#161b22"/>
  <rect x="0" y="63" width="1100" height="1" fill="#30363d"/>

  <!-- Window traffic lights -->
  <circle cx="28" cy="32" r="6" fill="#ff5f57"/>
  <circle cx="48" cy="32" r="6" fill="#febc2e"/>
  <circle cx="68" cy="32" r="6" fill="#28c840"/>

  <!-- Title -->
  <text x="550" y="26" text-anchor="middle" font-size="13" fill="#7d8590" letter-spacing="3">MISSION ORCHESTRATION FOR PI</text>
  <text x="550" y="48" text-anchor="middle" font-size="20" fill="#e6edf3" font-weight="bold" letter-spacing="1">pi-mission</text>

  <!-- Badge -->
  <rect x="950" y="22" width="110" height="22" rx="11" fill="#7c3aed" opacity="0.2"/>
  <rect x="950" y="22" width="110" height="22" rx="11" fill="none" stroke="#7c3aed" stroke-width="1"/>
  <text x="1005" y="37" text-anchor="middle" font-size="11" fill="#a855f7">Factory.ai inspired</text>

  <!-- ═══════════════════════════════════════════════════ -->
  <!-- SECTION 1: COMMAND INTERFACE (top-left)             -->
  <!-- ═══════════════════════════════════════════════════ -->
  <rect x="24" y="82" width="480" height="88" rx="10" fill="url(#panelGrad)" stroke="#30363d" stroke-width="1"/>
  <text x="40" y="102" font-size="11" fill="#7d8590" letter-spacing="1">TERMINAL</text>

  <!-- Prompt line -->
  <text x="40" y="124" font-size="13" fill="#7d8590">pi ›</text>
  <text x="68" y="124" font-size="13" fill="#e6edf3">/mission</text>
  <text x="148" y="124" font-size="13" fill="#a855f7">Build a user authentication system</text>
  <rect x="490" y="111" width="8" height="16" rx="1" fill="#a855f7" opacity="0.8">
    <animate attributeName="opacity" values="0.8;0;0.8" dur="1.2s" repeatCount="indefinite"/>
  </rect>

  <!-- Subtext -->
  <text x="40" y="152" font-size="12" fill="#3fb950">✓</text>
  <text x="58" y="152" font-size="12" fill="#7d8590">Planning questionnaire started — choose mode, autonomy, and models</text>

  <!-- ═══════════════════════════════════════════════════ -->
  <!-- SECTION 2: PROGRESS WIDGET (top-right)              -->
  <!-- ═══════════════════════════════════════════════════ -->
  <rect x="524" y="82" width="552" height="88" rx="10" fill="#0d1117" stroke="#30363d" stroke-width="1"/>
  <rect x="524" y="82" width="552" height="88" rx="10" fill="none" stroke="#7c3aed" stroke-width="1" opacity="0.4"/>

  <text x="540" y="108" font-size="12" fill="#a855f7">🎯</text>
  <text x="558" y="108" font-size="13" fill="#e6edf3" font-weight="bold">Build user authentication system</text>

  <!-- Phase progress bar track -->
  <rect x="540" y="118" width="520" height="10" rx="5" fill="#21262d"/>
  <!-- Filled portion (phase 4/6 ≈ 55%) -->
  <g transform="translate(540,118)">
    <clipPath id="phaseClip"><rect width="290" height="10" rx="5"/></clipPath>
    <rect width="520" height="10" rx="5" fill="url(#progressGrad)" clip-path="url(#phaseClip)" filter="url(#barGlow)"/>
  </g>
  <!-- Leading edge pulse -->
  <rect x="820" y="118" width="10" height="10" rx="2" fill="#c084fc" opacity="0.6">
    <animate attributeName="opacity" values="0.6;1;0.6" dur="1.5s" repeatCount="indefinite"/>
  </rect>

  <text x="540" y="148" font-size="12" fill="#7d8590">📐</text>
  <text x="558" y="148" font-size="12" fill="#a855f7">Phase 4/6:</text>
  <text x="635" y="148" font-size="12" fill="#e6edf3">Test</text>
  <text x="850" y="148" font-size="11" fill="#7d8590">3 phases done · 2 remaining</text>

  <!-- ═══════════════════════════════════════════════════ -->
  <!-- SECTION 3: MISSION CONTROL OVERLAY (main)           -->
  <!-- ═══════════════════════════════════════════════════ -->
  <rect x="24" y="186" width="700" height="340" rx="10" fill="#161b22" stroke="#30363d" stroke-width="1"/>
  <!-- Header bar -->
  <rect x="24" y="186" width="700" height="32" rx="10" fill="#21262d"/>
  <rect x="24" y="202" width="700" height="16" fill="#21262d"/>
  <text x="44" y="207" font-size="12" fill="#7d8590" letter-spacing="1">MISSION CONTROL</text>
  <text x="660" y="207" font-size="11" fill="#7d8590">Ctrl+Shift+M</text>

  <!-- Left panel: Current Feature -->
  <rect x="36" y="228" width="340" height="196" rx="8" fill="#0d1117" stroke="#30363d" stroke-width="1"/>
  <rect x="36" y="228" width="340" height="24" rx="8" fill="#21262d"/>
  <rect x="36" y="240" width="340" height="12" fill="#21262d"/>
  <text x="52" y="244" font-size="11" fill="#7d8590" letter-spacing="1">CURRENT FEATURE</text>

  <text x="52" y="270" font-size="16" fill="#e6edf3" font-weight="bold">jwt-token-auth</text>
  <rect x="52" y="278" width="70" height="16" rx="8" fill="#7c3aed" opacity="0.25"/>
  <text x="57" y="290" font-size="10" fill="#a855f7">● active</text>

  <text x="52" y="310" font-size="11" fill="#7d8590">skill</text>
  <text x="130" y="310" font-size="11" fill="#58a6ff">backend-patterns</text>
  <text x="52" y="328" font-size="11" fill="#7d8590">milestone</text>
  <text x="130" y="328" font-size="11" fill="#e6edf3">auth</text>
  <text x="52" y="346" font-size="11" fill="#7d8590">model</text>
  <text x="130" y="346" font-size="11" fill="#3fb950">claude-opus-4</text>

  <line x1="52" y1="358" x2="362" y2="358" stroke="#30363d" stroke-width="1"/>

  <text x="52" y="376" font-size="11" fill="#7d8590">preconditions</text>
  <text x="52" y="393" font-size="11" fill="#7d8590">  •</text>
  <text x="66" y="393" font-size="11" fill="#e6edf3">User model exists with email + password_digest</text>
  <text x="52" y="408" font-size="11" fill="#7d8590">  •</text>
  <text x="66" y="408" font-size="11" fill="#e6edf3">Sessions table migrated</text>

  <!-- Right panel: Features list -->
  <rect x="390" y="228" width="322" height="196" rx="8" fill="#0d1117" stroke="#30363d" stroke-width="1"/>
  <rect x="390" y="228" width="322" height="24" rx="8" fill="#21262d"/>
  <rect x="390" y="240" width="322" height="12" fill="#21262d"/>
  <text x="406" y="244" font-size="11" fill="#7d8590" letter-spacing="1">FEATURES</text>
  <text x="636" y="244" font-size="11" fill="#7d8590">8/15</text>

  <!-- Feature list items -->
  <text x="406" y="270" font-size="13" fill="#a855f7">●</text>
  <text x="424" y="270" font-size="12" fill="#e6edf3">jwt-token-auth</text>
  <text x="406" y="290" font-size="13" fill="#3fb950">✓</text>
  <text x="424" y="290" font-size="12" fill="#7d8590">user-registration</text>
  <text x="406" y="310" font-size="13" fill="#3fb950">✓</text>
  <text x="424" y="310" font-size="12" fill="#7d8590">login-endpoint</text>
  <text x="406" y="330" font-size="13" fill="#3fb950">✓</text>
  <text x="424" y="330" font-size="12" fill="#7d8590">logout-endpoint</text>
  <text x="406" y="350" font-size="13" fill="#3fb950">✓</text>
  <text x="424" y="350" font-size="12" fill="#7d8590">password-reset</text>
  <text x="406" y="370" font-size="13" fill="#3fb950">✓</text>
  <text x="424" y="370" font-size="12" fill="#7d8590">email-verification</text>
  <text x="406" y="390" font-size="13" fill="#7d8590">○</text>
  <text x="424" y="390" font-size="12" fill="#586069">oauth-google</text>
  <text x="406" y="410" font-size="13" fill="#7d8590">○</text>
  <text x="424" y="410" font-size="12" fill="#586069">two-factor-auth</text>

  <!-- Mini progress bar -->
  <rect x="406" y="418" width="292" height="6" rx="3" fill="#21262d"/>
  <g transform="translate(406,418)">
    <clipPath id="featureClip"><rect width="156" height="6" rx="3"/></clipPath>
    <rect width="292" height="6" rx="3" fill="url(#greenGrad)" clip-path="url(#featureClip)"/>
  </g>

  <!-- Progress Log panel -->
  <rect x="36" y="436" width="676" height="78" rx="8" fill="#0d1117" stroke="#30363d" stroke-width="1"/>
  <rect x="36" y="436" width="676" height="24" rx="8" fill="#21262d"/>
  <rect x="36" y="448" width="676" height="12" fill="#21262d"/>
  <text x="52" y="452" font-size="11" fill="#7d8590" letter-spacing="1">PROGRESS LOG</text>

  <text x="52" y="472" font-size="11" fill="#586069">&lt;1m</text>
  <text x="88" y="472" font-size="11" fill="#a855f7">●</text>
  <text x="102" y="472" font-size="11" fill="#7d8590">Feature started: jwt-token-auth</text>

  <text x="52" y="490" font-size="11" fill="#586069">12m</text>
  <text x="88" y="490" font-size="11" fill="#3fb950">✓</text>
  <text x="102" y="490" font-size="11" fill="#7d8590">Feature done: password-reset</text>
  <text x="380" y="490" font-size="11" fill="#586069">32m</text>
  <text x="416" y="490" font-size="11" fill="#3fb950">✓</text>
  <text x="430" y="490" font-size="11" fill="#7d8590">Feature done: login-endpoint</text>

  <text x="52" y="508" font-size="11" fill="#586069">45m</text>
  <text x="88" y="508" font-size="11" fill="#58a6ff">◎</text>
  <text x="102" y="508" font-size="11" fill="#7d8590">Milestone complete: user-core (3 features)</text>

  <!-- Action bar -->
  <rect x="36" y="524" width="676" height="1" fill="#30363d"/>
  <text x="52" y="545" font-size="11" fill="#7d8590">P: Pause</text>
  <text x="122" y="545" font-size="11" fill="#7d8590">S: Skip</text>
  <text x="183" y="545" font-size="11" fill="#7d8590">D: Done</text>
  <text x="247" y="545" font-size="11" fill="#7d8590">R: Redirect</text>
  <text x="330" y="545" font-size="11" fill="#7d8590">M: Models</text>
  <text x="413" y="545" font-size="11" fill="#7d8590">V: Validate</text>
  <text x="497" y="545" font-size="11" fill="#7d8590">Esc: Close</text>

  <!-- ═══════════════════════════════════════════════════ -->
  <!-- SECTION 4: WORKFLOW PHASES (bottom-left)            -->
  <!-- ═══════════════════════════════════════════════════ -->
  <rect x="24" y="542" width="700" height="110" rx="10" fill="url(#panelGrad)" stroke="#30363d" stroke-width="1"/>
  <text x="40" y="562" font-size="11" fill="#7d8590" letter-spacing="1">STANDARD MODE — 6 PHASES</text>

  <!-- Phase nodes -->
  <!-- Phase 1: Architect (done) -->
  <circle cx="80" cy="610" r="26" fill="#059669" opacity="0.15"/>
  <circle cx="80" cy="610" r="26" fill="none" stroke="#059669" stroke-width="1.5"/>
  <text x="80" y="606" text-anchor="middle" font-size="16">📐</text>
  <text x="80" y="620" text-anchor="middle" font-size="9" fill="#3fb950">✓ done</text>
  <text x="80" y="648" text-anchor="middle" font-size="10" fill="#7d8590">Architect</text>

  <!-- Connector -->
  <line x1="106" y1="610" x2="152" y2="610" stroke="#059669" stroke-width="1.5" stroke-dasharray="4,2"/>

  <!-- Phase 2: Review (done) -->
  <circle cx="178" cy="610" r="26" fill="#059669" opacity="0.15"/>
  <circle cx="178" cy="610" r="26" fill="none" stroke="#059669" stroke-width="1.5"/>
  <text x="178" y="606" text-anchor="middle" font-size="16">🔍</text>
  <text x="178" y="620" text-anchor="middle" font-size="9" fill="#3fb950">✓ done</text>
  <text x="178" y="648" text-anchor="middle" font-size="10" fill="#7d8590">Review</text>

  <!-- Connector -->
  <line x1="204" y1="610" x2="248" y2="610" stroke="#059669" stroke-width="1.5" stroke-dasharray="4,2"/>

  <!-- Phase 3: Implement (done) -->
  <circle cx="274" cy="610" r="26" fill="#059669" opacity="0.15"/>
  <circle cx="274" cy="610" r="26" fill="none" stroke="#059669" stroke-width="1.5"/>
  <text x="274" y="606" text-anchor="middle" font-size="16">🔨</text>
  <text x="274" y="620" text-anchor="middle" font-size="9" fill="#3fb950">✓ done</text>
  <text x="274" y="648" text-anchor="middle" font-size="10" fill="#7d8590">Implement</text>

  <!-- Connector -->
  <line x1="300" y1="610" x2="344" y2="610" stroke="#a855f7" stroke-width="1.5"/>

  <!-- Phase 4: Test (active) -->
  <circle cx="370" cy="610" r="28" fill="#7c3aed" opacity="0.25"/>
  <circle cx="370" cy="610" r="28" fill="none" stroke="#a855f7" stroke-width="2" filter="url(#glow)"/>
  <text x="370" y="606" text-anchor="middle" font-size="16">🧪</text>
  <text x="370" y="620" text-anchor="middle" font-size="9" fill="#a855f7">● active</text>
  <text x="370" y="648" text-anchor="middle" font-size="10" fill="#e6edf3">Test</text>

  <!-- Connector -->
  <line x1="398" y1="610" x2="442" y2="610" stroke="#30363d" stroke-width="1.5" stroke-dasharray="4,2"/>

  <!-- Phase 5: Audit -->
  <circle cx="466" cy="610" r="26" fill="none" stroke="#30363d" stroke-width="1.5"/>
  <text x="466" y="606" text-anchor="middle" font-size="16" opacity="0.4">🛡️</text>
  <text x="466" y="620" text-anchor="middle" font-size="9" fill="#586069">pending</text>
  <text x="466" y="648" text-anchor="middle" font-size="10" fill="#586069">Audit</text>

  <!-- Connector -->
  <line x1="492" y1="610" x2="536" y2="610" stroke="#30363d" stroke-width="1.5" stroke-dasharray="4,2"/>

  <!-- Phase 6: Verify -->
  <circle cx="560" cy="610" r="26" fill="none" stroke="#30363d" stroke-width="1.5"/>
  <text x="560" y="606" text-anchor="middle" font-size="16" opacity="0.4">✅</text>
  <text x="560" y="620" text-anchor="middle" font-size="9" fill="#586069">pending</text>
  <text x="560" y="648" text-anchor="middle" font-size="10" fill="#586069">Verify</text>

  <!-- ═══════════════════════════════════════════════════ -->
  <!-- SECTION 5: RIGHT COLUMN — Models + Modes + Persist  -->
  <!-- ═══════════════════════════════════════════════════ -->

  <!-- Per-Phase Models panel -->
  <rect x="740" y="186" width="336" height="190" rx="10" fill="url(#panelGrad)" stroke="#30363d" stroke-width="1"/>
  <text x="756" y="208" font-size="11" fill="#7d8590" letter-spacing="1">PER-PHASE MODEL ASSIGNMENT</text>
  <line x1="756" y1="216" x2="1060" y2="216" stroke="#30363d" stroke-width="1"/>

  <!-- Models -->
  <text x="756" y="238" font-size="11" fill="#7d8590">🧠 Planning &amp; Architecture</text>
  <text x="990" y="238" font-size="11" fill="#3fb950" font-weight="bold">claude-opus-4</text>

  <text x="756" y="260" font-size="11" fill="#7d8590">🔨 Implementation</text>
  <text x="990" y="260" font-size="11" fill="#58a6ff">claude-sonnet-4</text>

  <text x="756" y="282" font-size="11" fill="#7d8590">🔍 Code Review / Audit</text>
  <text x="990" y="282" font-size="11" fill="#3fb950">claude-opus-4</text>

  <text x="756" y="304" font-size="11" fill="#7d8590">✅ Validation</text>
  <text x="990" y="304" font-size="11" fill="#3fb950">claude-opus-4</text>

  <line x1="756" y1="318" x2="1060" y2="318" stroke="#30363d" stroke-width="1"/>
  <text x="756" y="336" font-size="11" fill="#586069">↳ Models switch automatically on phase transitions</text>
  <text x="756" y="354" font-size="11" fill="#586069">↳ Uses your actual modelRegistry — no hardcoded list</text>
  <text x="756" y="372" font-size="11" fill="#586069">↳ Override per-phase at any time with M key</text>

  <!-- Modes panel -->
  <rect x="740" y="390" width="336" height="148" rx="10" fill="url(#panelGrad)" stroke="#30363d" stroke-width="1"/>
  <text x="756" y="412" font-size="11" fill="#7d8590" letter-spacing="1">MODES</text>
  <line x1="756" y1="420" x2="1060" y2="420" stroke="#30363d" stroke-width="1"/>

  <!-- Standard -->
  <rect x="756" y="430" width="70" height="18" rx="9" fill="#58a6ff" opacity="0.15"/>
  <text x="791" y="443" text-anchor="middle" font-size="10" fill="#58a6ff">Standard</text>
  <text x="836" y="443" font-size="11" fill="#7d8590">6 phases · most tasks</text>

  <!-- Full -->
  <rect x="756" y="455" width="36" height="18" rx="9" fill="#a855f7" opacity="0.15"/>
  <text x="774" y="468" text-anchor="middle" font-size="10" fill="#a855f7">Full</text>
  <text x="800" y="468" font-size="11" fill="#7d8590">Milestones + features + assertions</text>

  <!-- Minimal -->
  <rect x="756" y="480" width="52" height="18" rx="9" fill="#3fb950" opacity="0.15"/>
  <text x="782" y="493" text-anchor="middle" font-size="10" fill="#3fb950">Minimal</text>
  <text x="816" y="493" font-size="11" fill="#7d8590">3 phases · quick fixes</text>

  <line x1="756" y1="508" x2="1060" y2="508" stroke="#30363d" stroke-width="1"/>

  <!-- Autonomy -->
  <text x="756" y="526" font-size="11" fill="#7d8590">Autonomy:</text>
  <rect x="822" y="514" width="32" height="16" rx="8" fill="#ef4444" opacity="0.15"/>
  <text x="838" y="526" text-anchor="middle" font-size="10" fill="#ef4444">Low</text>
  <rect x="862" y="514" width="50" height="16" rx="8" fill="#f59e0b" opacity="0.15"/>
  <text x="887" y="526" text-anchor="middle" font-size="10" fill="#f59e0b">Medium</text>
  <rect x="920" y="514" width="40" height="16" rx="8" fill="#3fb950" opacity="0.15"/>
  <text x="940" y="526" text-anchor="middle" font-size="10" fill="#3fb950">High</text>

  <!-- State Persistence panel -->
  <rect x="740" y="552" width="336" height="100" rx="10" fill="url(#panelGrad)" stroke="#30363d" stroke-width="1"/>
  <text x="756" y="574" font-size="11" fill="#7d8590" letter-spacing="1">STATE PERSISTENCE</text>
  <line x1="756" y1="582" x2="1060" y2="582" stroke="#30363d" stroke-width="1"/>

  <text x="756" y="602" font-size="11" fill="#3fb950">✓</text>
  <text x="772" y="602" font-size="11" fill="#7d8590">Survives /compact and session restarts</text>
  <text x="756" y="620" font-size="11" fill="#3fb950">✓</text>
  <text x="772" y="620" font-size="11" fill="#7d8590">Widget + overlay restored on resume</text>
  <text x="756" y="638" font-size="11" fill="#3fb950">✓</text>
  <text x="772" y="638" font-size="11" fill="#7d8590">mission_update tool syncs full-mode features</text>

  <!-- ═══════════════════════════════════════════════════ -->
  <!-- SECTION 6: BOTTOM — VALIDATION + COMMANDS           -->
  <!-- ═══════════════════════════════════════════════════ -->
  <rect x="24" y="666" width="700" height="130" rx="10" fill="url(#panelGrad)" stroke="#30363d" stroke-width="1"/>
  <text x="40" y="686" font-size="11" fill="#7d8590" letter-spacing="1">VALIDATION ASSERTIONS · FULL MODE</text>
  <line x1="40" y1="694" x2="708" y2="694" stroke="#30363d" stroke-width="1"/>

  <!-- Assertions -->
  <text x="40" y="716" font-size="12" fill="#3fb950">✓</text>
  <text x="58" y="716" font-size="11" fill="#586069">VAL-AUTH-001</text>
  <text x="140" y="716" font-size="11" fill="#7d8590">POST /auth/register returns 201 with user object</text>

  <text x="40" y="734" font-size="12" fill="#3fb950">✓</text>
  <text x="58" y="734" font-size="11" fill="#586069">VAL-AUTH-002</text>
  <text x="140" y="734" font-size="11" fill="#7d8590">POST /auth/login returns JWT token on valid credentials</text>

  <text x="40" y="752" font-size="12" fill="#a855f7">◎</text>
  <text x="58" y="752" font-size="11" fill="#586069">VAL-AUTH-003</text>
  <text x="140" y="752" font-size="11" fill="#7d8590">Expired tokens rejected with 401</text>
  <rect x="582" y="742" width="50" height="16" rx="8" fill="#a855f7" opacity="0.15"/>
  <text x="607" y="754" text-anchor="middle" font-size="10" fill="#a855f7">running</text>

  <text x="40" y="770" font-size="12" fill="#586069">○</text>
  <text x="58" y="770" font-size="11" fill="#586069">VAL-AUTH-004</text>
  <text x="140" y="770" font-size="11" fill="#586069">Rate limiting enforced on /auth/login (5 req/min)</text>

  <!-- Commands block -->
  <rect x="740" y="666" width="336" height="130" rx="10" fill="#0d1117" stroke="#30363d" stroke-width="1"/>
  <text x="756" y="688" font-size="11" fill="#7d8590" letter-spacing="1">COMMANDS</text>
  <line x1="756" y1="696" x2="1060" y2="696" stroke="#30363d" stroke-width="1"/>

  <text x="756" y="716" font-size="11" fill="#58a6ff">/mission</text>
  <text x="830" y="716" font-size="11" fill="#7d8590">Start or check status</text>
  <text x="756" y="734" font-size="11" fill="#58a6ff">/mission-status</text>
  <text x="878" y="734" font-size="11" fill="#7d8590">Detailed durations</text>
  <text x="756" y="752" font-size="11" fill="#58a6ff">/mission-features</text>
  <text x="886" y="752" font-size="11" fill="#7d8590">Browse by milestone</text>
  <text x="756" y="770" font-size="11" fill="#58a6ff">/mission-validate</text>
  <text x="882" y="770" font-size="11" fill="#7d8590">Assertion status</text>
  <text x="756" y="788" font-size="11" fill="#58a6ff">/mission-reset</text>
  <text x="858" y="788" font-size="11" fill="#7d8590">Clear state and widget</text>

  <!-- ═══════════════════════════════════════════════════ -->
  <!-- FOOTER                                              -->
  <!-- ═══════════════════════════════════════════════════ -->
  <rect x="0" y="800" width="1100" height="20" rx="0" fill="#0d1117"/>
  <rect x="0" y="800" width="1100" height="20" rx="16" fill="#0d1117"/>
  <rect x="0" y="800" width="1100" height="1" fill="#30363d"/>
  <text x="550" y="815" text-anchor="middle" font-size="10" fill="#586069" letter-spacing="2">github.com/itisbryan/pi-missions · MIT License · Inspired by Factory.ai</text>

</svg>
